<svg xmlns="http://www.w3.org/2000/svg" viewBox="0 0 500 500"><g id="freepik--background-complete--inject-149"><rect x="396.07" y="376.37" width="35.16" height="11.19" transform="translate(827.3 763.94) rotate(180)" style="fill:#ebebeb"></rect><rect x="353.02" y="262.62" width="35.16" height="11.19" transform="translate(741.19 536.43) rotate(180)" style="fill:#ebebeb"></rect><path d="M415.68,401.67c5.84-.09,20.81-.34,26.45-.41l8.71,0-.46.45,0-11.19.5.5c-5.84,0-20.73-.07-26.37-.15l-8.79-.11.24-.24-.24,11.19Zm0,0-.23-11.19v-.23h.24c4.39-.06,13.2-.16,17.58-.2l17.58-.07h.5v.5l0,11.19v.46h-.45l-8.87,0c-5.6-.06-20.5-.32-26.29-.42Z" style="fill:#ebebeb"></path><path d="M189.14,140.93c5.84-.1,20.81-.35,26.45-.42l8.71,0-.46.46,0-11.19.5.5c-5.84,0-20.73-.08-26.37-.16l-8.79-.11.24-.23-.24,11.19Zm0,0-.23-11.19v-.24h.24c4.39-.06,13.2-.16,17.58-.2l17.58-.06h.5v.51l0,11.19v.45h-.45l-8.87,0c-5.6-.06-20.5-.32-26.29-.41Z" style="fill:#ebebeb"></path><path d="M208.75,155c5.84-.1,20.82-.35,26.45-.42l8.71,0-.45.46-.05-11.19.5.5c-5.84,0-20.73-.08-26.37-.16l-8.78-.11.23-.23L208.75,155Zm0,0-.23-11.19v-.24h.25c4.38-.06,13.19-.16,17.57-.2l17.58-.06h.5v.51l0,11.19v.45h-.46l-8.87,0c-5.6-.06-20.5-.32-26.29-.41Z" style="fill:#ebebeb"></path><rect x="228.29" y="129.74" width="35.16" height="11.19" transform="translate(491.74 270.66) rotate(180)" style="fill:#ebebeb"></rect><rect x="49.16" y="390.48" width="35.16" height="11.19" transform="translate(133.48 792.16) rotate(180)" style="fill:#ebebeb"></rect><rect x="68.77" y="44.93" width="35.16" height="11.19" transform="translate(172.7 101.06) rotate(180)" style="fill:#ebebeb"></rect><path d="M49.16,70.23c5.84-.1,20.81-.35,26.45-.41l8.71,0-.46.45,0-11.19.5.5c-5.84,0-20.73-.07-26.37-.15l-8.79-.11L49.4,59l-.24,11.19Zm0,0L48.92,59v-.23h.24c4.39-.06,13.19-.16,17.58-.2l17.58-.07h.5V59l0,11.19v.46h-.45l-8.87,0c-5.6-.07-20.51-.32-26.29-.42Z" style="fill:#ebebeb"></path><path d="M396.07,56.12c5.84-.1,20.81-.34,26.45-.41l8.71,0-.46.45,0-11.19.5.5-17.58-.07c-4.38,0-13.2-.13-17.58-.19l.24-.24-.24,11.19Zm0,0-.24-11.19V44.7h.24c4.39-.06,13.2-.16,17.58-.2l17.58-.07h.5v.5l-.05,11.19v.46h-.45l-8.87,0c-5.6-.07-20.5-.32-26.29-.42Z" style="fill:#ebebeb"></path><path d="M416.71,89.61l.62-2.69c4.73.4,4.92-.4,4.62-3.77-.23-2.35-.64-5.89-1.07-9.05l-14.19-3.26c-1.32,2.08-3,4.61-4.22,6.7-2.58,4.24-1,5.22,4.67,7l-.62,2.69-18-4.12.62-2.69c4.71.47,6,.08,9.91-5.47l23.76-34.17,3.64.15c1.76,13.73,3.74,27.82,5.69,41.06,1.14,7.39,1.68,8,6.28,9.72l-.62,2.69Zm1.57-36.26c-3.32,4.76-6.47,9.17-9.5,14.06l11.57,2.66Z" style="fill:#ebebeb"></path><path d="M446.68,168.64a85,85,0,0,1-5.37,8.66,50.88,50.88,0,0,1-11.07-.89c-15.7-3.52-19.91-15.06-17.84-24.34,2.71-12.08,13.76-18.18,27.77-15,5.07,1.14,9.29,3.37,10.71,3.87-.32,2.81-.88,7.22-1.05,9.88l-2.42-.12c-.21-4.82-1.47-7.38-4.29-9.29a15,15,0,0,0-4.9-2c-8.46-1.9-14.3,4.21-16.35,13.37-2.4,10.68,1.46,19.14,9.46,20.94,4.9,1.09,8.74-.74,13.33-6.45Z" style="fill:#ebebeb"></path><path d="M87,146.06c6.09-1,11.1.27,13,5.45a10.41,10.41,0,0,1-2.26,10.16,22.86,22.86,0,0,1-9.54,6L72.9,173.13l-.72-2c4-1.94,4.38-2.37,2.74-6.94l-7.43-20.78c-1.64-4.58-2.52-4.81-6.49-3.7l-.72-2,16.57-5.93c4.14-1.48,7-1.87,9.62-1.29A7.43,7.43,0,0,1,92,135.31C93.58,139.84,90.31,144.08,87,146.06Zm-7.18,1.77C85,146,86.13,143.06,84.68,139c-1.69-4.74-5.44-5.43-8.45-4.35a5.47,5.47,0,0,0-2.4,1.35c-.46.6-.23,1.07.18,2.21l3.7,10.36ZM82.3,161.4c1.4,3.93,3.63,4.48,6.56,3.37s5-4.8,3.17-9.86c-1.89-5.29-5.46-6.85-11.57-4.66l-1.91.68Z" style="fill:#ebebeb"></path><path d="M79.73,292.77c8.11,2.2,13.59,5.52,16.62,10.42,2.42,3.85,3.69,9,2,15.36-2,7.28-6.52,12-12.4,14.39-5.65,2.27-12.14,2.42-19.36.46l-17.43-4.72.63-2.34c4.93.93,5.65.51,7.07-4.75l6.52-24.08c1.44-5.32.88-6-3.7-7.66l.63-2.35Zm-14,30.76c-1.22,4.5-.49,6.33,4.13,7.58,8.56,2.32,15.11-2.3,18.36-14.27,1.63-6,1.4-11.73-.78-15.24-1.93-3.38-5-5.16-9.24-6.31-2.34-.63-3.55-.42-4-.15-.72.42-1.14,1.47-1.64,3.3Z" style="fill:#ebebeb"></path></g><g id="freepik--Clipboard--inject-149"><rect x="110.75" y="58.79" width="286.28" height="380.26" style="fill:#C53F3F"></rect><g style="opacity:0.30000000000000004"><rect x="110.75" y="58.79" width="286.28" height="380.26" style="fill:#020100"></rect></g><rect x="102.97" y="58.79" width="286.28" height="380.26" style="fill:#C53F3F"></rect><g style="opacity:0.2"><rect x="102.97" y="58.79" width="286.28" height="380.26"></rect></g><rect x="122.44" y="75.57" width="252.73" height="342.59" transform="translate(-3.12 3.19) rotate(-0.73)" style="fill:#ebebeb"></rect><rect x="73.62" y="120.5" width="342.59" height="252.73" transform="translate(-7.18 486.39) rotate(-88.76)" style="fill:#dbdbdb"></rect><rect x="123.64" y="75.57" width="252.73" height="342.59" style="fill:#fff"></rect><rect x="194.77" y="112.94" width="110.47" height="0.78" style="fill:#263238"></rect><rect x="185.08" y="147.5" width="158.81" height="0.78" style="fill:#263238"></rect><rect x="156.11" y="164.23" width="187.78" height="0.78" style="fill:#263238"></rect><rect x="156.11" y="180.96" width="187.78" height="0.78" style="fill:#263238"></rect><rect x="156.11" y="197.69" width="187.78" height="0.78" style="fill:#263238"></rect><rect x="156.11" y="214.43" width="187.78" height="0.78" style="fill:#263238"></rect><rect x="156.11" y="231.16" width="101.44" height="0.78" style="fill:#263238"></rect><rect x="156.11" y="264.62" width="187.78" height="0.78" style="fill:#263238"></rect><rect x="156.11" y="281.36" width="187.78" height="0.78" style="fill:#263238"></rect><rect x="156.11" y="298.09" width="187.78" height="0.78" style="fill:#263238"></rect><rect x="156.11" y="314.82" width="187.78" height="0.78" style="fill:#263238"></rect><rect x="156.11" y="331.55" width="187.78" height="0.78" style="fill:#263238"></rect><rect x="156.11" y="348.29" width="187.78" height="0.78" style="fill:#263238"></rect><rect x="156.11" y="365.02" width="187.78" height="0.78" style="fill:#263238"></rect><rect x="156.11" y="381.75" width="101.44" height="0.78" style="fill:#263238"></rect><polygon points="199.42 177.73 197.63 176.84 195.84 177.73 194.04 176.84 192.25 177.73 190.46 176.84 188.66 177.73 186.87 176.84 185.07 177.73 183.28 176.84 181.49 177.73 179.7 176.84 177.9 177.73 176.1 176.84 174.32 177.73 172.52 176.84 170.73 177.73 168.93 176.84 167.14 177.73 165.35 176.84 163.55 177.73 161.76 176.84 159.96 177.73 158.17 176.84 156.61 177.61 156.15 176.68 158.18 175.68 159.96 176.57 161.76 175.68 163.55 176.57 165.35 175.68 167.14 176.57 168.93 175.68 170.73 176.57 172.52 175.68 174.32 176.57 176.1 175.68 177.9 176.57 179.7 175.68 181.49 176.57 183.28 175.68 185.07 176.57 186.87 175.68 188.66 176.57 190.46 175.68 192.25 176.57 194.04 175.68 195.84 176.57 197.63 175.68 199.42 176.57 201.22 175.68 203.01 176.57 204.81 175.68 206.59 176.57 208.39 175.68 210.19 176.57 211.98 175.68 214.01 176.68 213.55 177.61 211.98 176.84 210.19 177.73 208.39 176.84 206.59 177.73 204.81 176.84 203.01 177.73 201.22 176.84 199.42 177.73" style="fill:#C53F3F"></polygon><polygon points="268.3 278.44 266.5 277.54 264.71 278.44 262.91 277.54 261.13 278.44 259.33 277.54 257.53 278.44 255.74 277.54 253.94 278.44 252.15 277.54 250.59 278.32 250.13 277.39 252.16 276.38 253.94 277.28 255.74 276.38 257.53 277.28 259.33 276.38 261.12 277.28 262.91 276.38 264.71 277.28 266.5 276.38 268.3 277.28 270.08 276.38 271.88 277.28 273.68 276.38 275.7 277.39 275.24 278.32 273.68 277.54 271.88 278.44 270.08 277.54 268.3 278.44" style="fill:#C53F3F"></polygon><polygon points="213.43 328.75 211.64 327.86 209.84 328.75 208.05 327.86 206.26 328.75 204.46 327.86 202.67 328.75 200.87 327.86 199.09 328.75 197.29 327.86 195.49 328.75 193.7 327.86 191.9 328.75 190.12 327.86 188.55 328.63 188.09 327.7 190.12 326.69 191.9 327.59 193.7 326.69 195.49 327.59 197.29 326.69 199.09 327.59 200.87 326.69 202.67 327.59 204.46 326.69 206.26 327.59 208.04 326.69 209.84 327.59 211.64 326.69 213.43 327.59 215.22 326.69 217.01 327.59 218.81 326.69 220.61 327.59 222.4 326.69 224.42 327.7 223.96 328.63 222.4 327.86 220.61 328.75 218.81 327.86 217.01 328.75 215.22 327.86 213.43 328.75" style="fill:#C53F3F"></polygon><polygon points="261.07 160.95 259.27 160.06 257.48 160.95 255.68 160.06 253.9 160.95 252.1 160.06 250.31 160.95 248.51 160.06 246.72 160.95 244.93 160.06 243.13 160.95 241.34 160.06 239.54 160.95 237.75 160.06 236.19 160.83 235.73 159.9 237.75 158.9 239.54 159.79 241.34 158.9 243.13 159.79 244.93 158.9 246.72 159.79 248.51 158.9 250.31 159.79 252.1 158.9 253.9 159.79 255.68 158.9 257.48 159.79 259.27 158.9 261.07 159.79 262.85 158.9 264.65 159.79 266.45 158.9 268.24 159.79 270.04 158.9 272.06 159.91 271.59 160.83 270.04 160.06 268.24 160.95 266.45 160.06 264.65 160.95 262.86 160.06 261.07 160.95" style="fill:#C53F3F"></polygon><polygon points="324.14 144.37 321.06 142.84 317.97 144.37 314.89 142.84 311.82 144.37 308.74 142.84 305.66 144.37 302.57 142.84 299.51 144.37 296.42 142.84 293.34 144.37 290.26 142.84 287.17 144.37 284.11 142.84 281.25 144.25 280.79 143.32 284.11 141.68 287.17 143.21 290.26 141.68 293.34 143.21 296.42 141.68 299.51 143.21 302.57 141.68 305.66 143.21 308.74 141.68 311.82 143.21 314.89 141.68 317.97 143.21 321.06 141.68 324.14 143.21 327.2 141.68 330.29 143.21 333.37 141.68 336.46 143.21 339.54 141.68 342.84 143.32 342.37 144.25 339.54 142.84 336.46 144.37 333.37 142.84 330.29 144.37 327.21 142.84 324.14 144.37" style="fill:#C53F3F"></polygon><path d="M177.72,247.45a92.82,92.82,0,0,1,15.82-1.22c5.4.19,10.84.55,15.86,3,2.69,1.2,5.45,4.26,3.81,7.46-1.65,2.93-4.66,4.26-7.56,5.34-10.43,3.27-21.3,3.4-32,1.81-5.29-1.15-13-2.81-15.26-8.47-1-2.8,1.25-5.63,3.44-6.91,7.05-4.12,15.34-4.9,23.3-5-7.56,1-15.72,2.36-22.13,6.63-8.24,6.23,6.29,10.21,11.14,10.8,8.61,1.37,30.53,1.6,36.47-5.16,1.29-1.89-.68-3.45-2.36-4.42-4.4-2.4-9.78-3.12-14.79-3.62a128.75,128.75,0,0,0-15.73-.3Z" style="fill:#C53F3F"></path><path d="M289.8,183.82c8.18-1.28,25.54-3,31.41,3.91a4.12,4.12,0,0,1,0,4.74c-4.3,5.53-14.35,6.09-20.74,6.6-8,.24-22.49-.09-27.57-7.19-1.79-2.9.16-5.86,2.68-7.3,6.33-3.57,13.69-4.19,20.78-4.18-3.92.23-24.82,4.22-21.39,10.2,2.77,3.26,7.62,4.06,11.69,4.8,7.64,1.15,26.9,1.38,32.28-4.42,1.09-1.58-.7-2.82-2.1-3.63-8.29-3.93-18-3.52-27.07-3.53Z" style="fill:#C53F3F"></path><path d="M283.59,333.08c25.48-7.29,32.62,14.7,7.93,17.64-5.65.53-11.9.08-16.75-3.34-6.44-4.61-4.11-11.65,2.41-14.69a24.64,24.64,0,0,1,10.73-2.61c-5,1.11-10.56,3.15-13.65,7.39-3.29,4.74,2.32,8.72,6.65,9.59,6.37,1.47,14.3,1,20-2.33,5.13-3.19,3.75-8.05-1.45-10.17-4.95-2.07-10.48-1.93-15.83-1.48Z" style="fill:#C53F3F"></path><path d="M323.23,281.75c-1.59,2.49-3.59,6-5.08,8.59a82.51,82.51,0,0,1-5.43,8.48c1.33-6.43,4.84-13.48,10.51-17.07Z" style="fill:#C53F3F"></path><path d="M326.64,295.33c-2.54-1.53-6.11-3.45-8.72-4.87a82.27,82.27,0,0,1-8.6-5.23c6.45,1.18,13.59,4.52,17.32,10.1Z" style="fill:#C53F3F"></path><path d="M192.08,354.74c-2.51,1.58-5.82,3.92-8.25,5.62a84.88,84.88,0,0,1-8.53,5.36c3.94-5.25,10.12-10.14,16.78-11Z" style="fill:#C53F3F"></path><path d="M189.38,368.49c-1.64-2.47-4.06-5.73-5.82-8.12A84.69,84.69,0,0,1,178,352c5.34,3.81,10.38,9.87,11.38,16.51Z" style="fill:#C53F3F"></path><rect x="181.3" y="51.85" width="124.13" height="37.85" style="fill:#c7c7c7"></rect><path d="M281.31,31.16h-77l-3.42,20.69h85ZM243.36,46.05a4.54,4.54,0,1,1,4.54-4.54A4.54,4.54,0,0,1,243.36,46.05Z" style="fill:#c7c7c7"></path><polygon points="285.87 51.85 200.86 51.85 201.63 47.22 284.84 47.22 285.87 51.85" style="fill:#a6a6a6"></polygon><path d="M170.78,148.27v-1.4c2.39-.34,2.39-.76,1.86-2.39-.38-1.14-1-2.84-1.55-4.36h-7.4c-.42,1.18-.95,2.62-1.33,3.79-.79,2.39.12,2.69,3.11,3v1.4h-9.36v-1.4c2.39-.3,3-.64,4.28-3.83l7.89-19.6,1.82-.34c2.43,6.59,5,13.34,7.47,19.67,1.4,3.53,1.74,3.8,4.21,4.1v1.4Zm-3.33-18.12c-1.1,2.73-2.17,5.27-3.11,8h6Z" style="fill:#263238"></path></g><g id="freepik--Floor--inject-149"><path d="M49,470.6c128.79-.61,273.25-.62,402,0-128.79.62-273.25.61-402,0Z" style="fill:#263238"></path></g><g id="freepik--character-2--inject-149"><path d="M375.39,142.67c-1.64,4.18-4,8-5.28,12.31A28.25,28.25,0,0,0,369,167.3c2.32,15.15,22.05,24.24,35.9,19.54,6.63-2.26,12.4-7.63,14.16-14.53,2.15-8.45-2.36-16.57-5.1-24.29a39.5,39.5,0,0,1-2.22-13.45c0-4,.24-8.09-.57-12-.58-2.82-2.51-11-12.91-14.31-7.47-2.35-15,1.73-18.51,8.82C375.73,125.27,378.62,134.39,375.39,142.67Z" style="fill:#263238"></path><path d="M411,143.91c3.23,6.91,7.46,14,8.71,21.59,1,6.32-.68,13.16-6.18,16.92-.05,0-.1,0-.06-.07,5.78-4.47,6.5-12.22,4.88-18.87-1.66-6.83-5.66-12.76-7.68-19.43A.18.18,0,0,1,411,143.91Z" style="fill:#263238"></path><path d="M412.42,143.51c2.44,9.06,9.9,16.2,10.38,25.84,0,.12-.17.14-.18,0-.63-9.63-8.92-16.47-10.38-25.85C412.22,143.41,412.39,143.4,412.42,143.51Z" style="fill:#263238"></path><path d="M374.86,142.52a31.27,31.27,0,0,0,2.84-10.65c0-.19.33-.21.34,0,.87,13.31-14.37,23.28-10.31,37,0,.1-.11.16-.15.07-1.95-5.68-.43-11.36,2.12-16.59C371.32,149,373.29,145.89,374.86,142.52Z" style="fill:#263238"></path><path d="M378,129.89c0-.25.4-.18.38.07a29.71,29.71,0,0,1-4.67,14c-1.33,2.07-3,3.93-4.24,6-1.4,2.3-2.48,4.77-3.66,7.19,0,.06-.12,0-.1,0,1.54-4.58,3.94-8.23,6.69-12.13A32.68,32.68,0,0,0,378,129.89Z" style="fill:#263238"></path><path d="M395.25,158.88c0,21.65-2.46,43.6-5.49,47.41-4.69,5.91-33.7,17.28-43.32,19.08-3.15.58-8.81-20.49-6.56-23.08s33.7-12.52,35.34-13.83c.87-.71,6.49-18.13,11-29.9C390.48,147.62,395.25,152.31,395.25,158.88Z" style="fill:#d3766a"></path><path d="M357.28,223.29l-7.51-26.55s22.12-8.24,24.75-9.48c1.11-.52,8.18-22,11.72-31.35,2.33-6.12,8.45-8.82,9.85,3.74.82,7.36-.42,42.61-5.49,48.14C386.57,212.19,357.28,223.29,357.28,223.29Z" style="fill:#C53F3F"></path><path d="M362.13,218.56c-.14-1.8-5.13-19.52-5.63-21.34,0-.1-.18-.08-.16,0A156.29,156.29,0,0,0,362,218.59.05.05,0,0,0,362.13,218.56Z" style="fill:#263238"></path><path d="M390.6,207.79c-2.38,2.59-13.54,7.52-22.3,11.13l1.4-29.72c2.37-.92,4.17-1.64,4.82-1.94,1.11-.52,8.18-22,11.72-31.35,2.33-6.12,8.45-8.82,9.85,3.74C396.91,167,395.67,202.26,390.6,207.79Z" style="fill:#020100;opacity:0.1"></path><path d="M322.3,471.26c2.42.76,73.13-.77,75.71-2.5,1-.63-5.06-67.61-5.06-67.61L348.1,402l5.1,44.8s-26.09,12.36-28.73,14.55S319.88,470.51,322.3,471.26Z" style="fill:#d3766a"></path><path d="M322.3,471.26c2.42.75,73.13-.77,75.71-2.5.31-.19.4-7-.72-15.85-12.82,2.15-58.59,9.18-62.15,7.08-2.48-1.46-.28-3.74,1.75-5.28-5.84,2.91-11.29,5.71-12.42,6.66C321.85,463.55,319.88,470.51,322.3,471.26Z" style="fill:#263238"></path><path d="M398,468.76c-1.3.88-20.08,1.7-38.61,2.2l37.05-29C397.57,456.08,398.43,468.49,398,468.76Z" style="fill:#020100;opacity:0.1"></path><path d="M351.94,436.07l44-.62S386.13,335,386.49,333c.46-2.6,32.81-130.06,32.81-130.06h-42S344.15,317.07,343,328.07C341,345.83,351.94,436.07,351.94,436.07Z" style="fill:#37474f"></path><path d="M392,425.51c-2.6-.19-5.23-.15-7.83-.19s-5.23,0-7.84,0c-5.22.06-10.44.13-15.66.28l-4.28.15c-1.53.07-3.05.33-4.57.39-.12,0-.11.18,0,.19,1.28,0,2.56.2,3.84.24s2.67,0,4,0l7.83,0c5.22,0,10.44-.11,15.65-.33,3-.12,5.93-.16,8.86-.45A.14.14,0,0,0,392,425.51Z" style="fill:#263238"></path><path d="M410.06,212.81c-3.76,13.32-7.2,26.75-10.57,40.16s-6.72,26.85-10.06,40.29l-5,20.14c-1.63,6.54-3.52,13.11-3.92,19.87s.46,13.79,1,20.63,1.16,13.75,1.76,20.62c1.2,13.75,2.36,27.51,3.86,41.24.18,1.71.37,3.43.54,5.15,0,.14.24.14.23,0-.91-13.76-1.86-27.51-3-41.25-.54-6.88-1.11-13.75-1.67-20.63s-1.37-13.74-1.59-20.62,1.05-13.6,2.73-20.31,3.29-13.14,4.94-19.71q5-20.14,10.06-40.29c3.73-15,7.45-30.1,10.74-45.25A.06.06,0,0,0,410.06,212.81Z" style="fill:#263238"></path><path d="M419.3,202.92s-13.24,52.34-22.62,89.33l-18-89.33Z" style="fill:#263238"></path><path d="M374.1,471.42c2.43.76,73.13-.77,75.71-2.49,1-.64-3.69-67.65-3.69-67.65l-43.26.86L405,447s-26.08,12.36-28.73,14.56S371.68,470.67,374.1,471.42Z" style="fill:#d3766a"></path><path d="M374.1,471.42c2.42.76,73.13-.77,75.71-2.5.31-.19.24-6.81,0-15.85-12.82,2.14-59.29,9.18-62.86,7.08-2.48-1.46-.28-3.74,1.75-5.28-5.84,2.92-11.29,5.72-12.42,6.66C373.65,463.71,371.68,470.68,374.1,471.42Z" style="fill:#263238"></path><path d="M377.64,202.91s2.38,29.7,7.28,37.16a75,75,0,0,1,12.18,6.07s3,79.47,3,84.24c-.19,17.85,4.37,104.81,4.37,104.81l44.39-.43s-11.49-151.09-14.17-185.68c0,0,2-11.05,1.59-16.63-1.06-13.53-6.17-29.53-6.17-29.53Z" style="fill:#37474f"></path><path d="M393.26,231.15c-.16-1.11-.33-2.22-.5-3.33-.31-2-.73-4.06-1.08-6.09-.81-4.6-1.65-9.22-2.68-13.78a.1.1,0,0,0-.2,0c.18,1.84.39,3.68.66,5.51s.44,3.68.7,5.52c.51,3.63,1,7.28,1.63,10.9.24,1.39,1.11,3.89-.89,4.32-1.59.35-2.76-1.22-3.23-2.52a31.92,31.92,0,0,1-1.07-5c-.32-1.83-.61-3.68-.87-5.52q-.86-6-1.85-12c0-.11-.2-.08-.2,0,.13,4.13.35,8.22.89,12.32.26,2,.55,3.91.89,5.86a20.71,20.71,0,0,0,1.34,5.45,4.43,4.43,0,0,0,3.32,2.67h.1a.14.14,0,0,0-.06.12c0,.65,0,1.31.08,2s.19,1.28.31,1.92a13.74,13.74,0,0,0,.5,1.91,5.5,5.5,0,0,0,.87,1.69.12.12,0,0,0,.22-.07h0c0-.11,0-.21,0-.32s0,0,0,0h0a5.44,5.44,0,0,0,0-.57c-.05-.32-.12-.63-.19-.94-.14-.62-.31-1.23-.47-1.85s-.3-1.23-.46-1.84-.37-1.25-.51-1.89c0,0,0,0-.05-.06a2.89,2.89,0,0,0,2.8-1.76A5,5,0,0,0,393.26,231.15Z" style="fill:#263238"></path><path d="M400.69,247.11a36.18,36.18,0,0,0-4.17-2.75,41.21,41.21,0,0,0-4.76-2.46c-3.21-1.4-6.52-2.35-9.84-3.45-.1,0-.16.14-.07.17,3.21,1.28,6.29,3,9.39,4.49,1.53.75,3.07,1.46,4.63,2.15s3.1,1.49,4.7,2.07C400.69,247.38,400.79,247.19,400.69,247.11Z" style="fill:#263238"></path><path d="M421.9,222.31c-2.25,0-10.07-.57-12.38-3.16a15.82,15.82,0,0,1-2.89-5.21,47.85,47.85,0,0,1-1.75-6.33.09.09,0,0,0-.18,0,24.2,24.2,0,0,0,.91,7.18c.54,2,1.28,4.2,2.88,5.59a11.31,11.31,0,0,0,6.13,2.24,28.24,28.24,0,0,0,7.29-.1A.12.12,0,0,0,421.9,222.31Z" style="fill:#263238"></path><path d="M372.34,222.92a7.57,7.57,0,0,0,3-1.81c1.71-2.57,2.13-10.74,2.27-12.89,0-.11.06-.07.06,0,0,2.4-.09,4.86-.28,7.18a26.07,26.07,0,0,1-.89,5.59c-.52,1.46-3.4,2.47-4.15,2.14C372.29,223.14,372.29,222.92,372.34,222.92Z" style="fill:#263238"></path><path d="M446.87,426.16c-2.6-.18-5.23-.15-7.84-.19s-5.22,0-7.83,0c-5.22.05-10.44.13-15.66.27-1.43,0-2.86.09-4.28.15s-3.05.34-4.58.39a.1.1,0,0,0,0,.19c1.28,0,2.56.2,3.85.24s2.66,0,4,0c2.61,0,5.22,0,7.83,0,5.22,0,10.44-.11,15.66-.33,2.94-.12,5.92-.15,8.85-.45A.14.14,0,0,0,446.87,426.16Z" style="fill:#263238"></path><path d="M441.45,420.38h0a.53.53,0,0,0,.51-.57L428.12,247.75c.13-.76,2.95-10.37,3.21-15.28.26-5.19-5.1-25.42-5.33-26.27a.55.55,0,0,0-.66-.39.54.54,0,0,0-.39.66c.06.21,5.55,20.93,5.3,25.95s-3.19,15.12-3.2,15.2,13.86,172.25,13.86,172.25A.54.54,0,0,0,441.45,420.38Z" style="fill:#263238"></path><path d="M378.49,194.19l-2.14,16.37,57.78-2s-15.33-45.71-24.57-54.83c-7.35-7.25-15.53-6.29-20.5-.74-1.26,1.41-13.63,21.36-14.91,29.41C373,189.52,378.49,194.19,378.49,194.19Z" style="fill:#ebebeb"></path><g style="opacity:0.1"><path d="M390.45,191.92a22,22,0,0,0-5.47.69c-.91.26-1.83.58-2.74.94-.46.18-.91.33-1.37.48a3.79,3.79,0,0,1-1.42.24s-.06.1,0,.11a5.72,5.72,0,0,0,1.3.17,6.55,6.55,0,0,0,1.3-.22c.93-.24,1.86-.56,2.79-.82a50.06,50.06,0,0,1,5.61-1.33C390.51,192.17,390.54,191.91,390.45,191.92Z" style="fill:#263238"></path><path d="M398.9,194a54.12,54.12,0,0,0-7-.43c-1.16,0-2.32.09-3.48.21-.56.06-1.11.12-1.66.2s-1.21.26-1.82.34c-.06,0-.06.12,0,.11.58,0,1.16,0,1.74,0l1.74,0,3.48-.07c2.33-.07,4.64-.12,7-.1C399,194.2,399,194,398.9,194Z" style="fill:#263238"></path></g><path d="M401.34,148.86S395.23,185,395,187.77s-7.5,72.7,7.24,89.59c8.14,9.33,38.7,13.45,38.7,13.45s-1.42-53.93-3.45-67.77c-1.95-13.23-12.42-46.83-24.06-65C409.23,151.44,405.36,149.61,401.34,148.86Z" style="fill:#C53F3F"></path><path d="M405.83,245.42c-.15,5.66.13,12.07,1.34,13.24,2.27,2.2,8.28,2,10.16,2s8.62-.06,10.18-3.53c.69-1.54.85-9.44.82-12.24,0-1.14-.29-6.73-.38-7.35,0-.15-.42-.13-.43,0-.1.64,0,3-.06,3.4a62.72,62.72,0,0,1-21-.36c0-1.05,0-1.86,0-2.91a59.2,59.2,0,0,0,10.27.94,111.71,111.71,0,0,0,11.25-.85c.09,0,0-.43-.11-.42-1.41,0-6.3.52-11.23.54a89.23,89.23,0,0,1-10.54-.78C405.89,237.09,405.91,242.7,405.83,245.42Zm2,12.59c-1.21-1.37-1.37-5.32-1.38-7.68,0-3.26,0-5.86,0-9.12a55.73,55.73,0,0,0,21,.2c0,.14.09,7,0,9.2-.07,2.8-.15,5.32-1.22,6.78-.91,1.25-3.5,2.51-9.47,2.53C412.47,259.93,408.83,259.16,407.83,258Z" style="fill:#020100;opacity:0.1"></path><path d="M389.06,153S381,173.21,380,179.49a86.43,86.43,0,0,0-.52,14.78s-7.51,63.63-9.26,68.89-16.12,16.94-16.12,16.94,15.39-52.64,19.74-69.18c1.09-4.13,2.19-17,2.19-17s-3.45-3.91-2.68-10.85S385,158.32,389.06,153Z" style="fill:#C53F3F"></path><path d="M389.47,152.58c-.76,1.17-4.67,12.34-4,12.92s10.65,1.05,11.67.37,3.65-14.11,3.6-15S389.47,152.58,389.47,152.58Z" style="fill:#d3766a"></path><path d="M400.77,150.89c-.13,1.05-4.35,8.26-9.09,8.53-1.54.09-2.38-8.31-2.38-8.31l-.21-.61L386.24,142l9.51-7.61,1.39-1s.62,2.37,1.38,5.33c0,.13.07.27.1.42a4.94,4.94,0,0,1,.13.48c.12.44.24.89.35,1.34s.16.68.24,1l.24,1.08A57.54,57.54,0,0,1,400.77,150.89Z" style="fill:#d3766a"></path><path d="M398.52,138.73a17.92,17.92,0,0,1-9.43,11.77L386.24,142l9.51-7.61,1.39-1S397.76,135.77,398.52,138.73Z" style="fill:#263238"></path><path d="M374.49,125.49c-3.79,15.24,4.91,19.23,8.19,20,3,.74,13.24,2.87,18.58-11.89s-.54-21.33-7.27-23.38S378.28,110.26,374.49,125.49Z" style="fill:#d3766a"></path><path d="M377.19,124.76c.37,0,.71,0,1.08,0a1.81,1.81,0,0,0,1.1-.25.55.55,0,0,0,.11-.67,1.36,1.36,0,0,0-1.28-.56,2,2,0,0,0-1.39.49A.6.6,0,0,0,377.19,124.76Z" style="fill:#263238"></path><path d="M387.59,126.2a8.89,8.89,0,0,1-1-.41,1.74,1.74,0,0,1-.95-.6.55.55,0,0,1,.12-.67,1.38,1.38,0,0,1,1.4-.09,2,2,0,0,1,1.13.93A.6.6,0,0,1,387.59,126.2Z" style="fill:#263238"></path><path d="M379,127.69s-.09,0-.09.08c-.13,1.06-.45,2.26-1.46,2.47,0,0,0,.06,0,.06C378.63,130.31,379,128.72,379,127.69Z" style="fill:#263238"></path><path d="M378.22,126.45c-1.68-.39-2.33,3-.78,3.36S379.63,126.77,378.22,126.45Z" style="fill:#263238"></path><path d="M377.47,126.53c-.3.13-.63.41-1,.37s-.58-.47-.75-.87c0,0,0,0-.06,0-.14.64-.06,1.36.54,1.6s1.07-.25,1.35-.86C377.65,126.68,377.59,126.48,377.47,126.53Z" style="fill:#263238"></path><path d="M385.14,128.9s.08.07.07.11c-.22,1.05-.29,2.28.6,2.8,0,0,0,.07,0,.06C384.66,131.5,384.77,129.86,385.14,128.9Z" style="fill:#263238"></path><path d="M386.28,128c1.71.16,1.25,3.58-.34,3.43S384.84,127.83,386.28,128Z" style="fill:#263238"></path><path d="M387,128.29c.24.22.47.58.79.65s.69-.26,1-.59c0,0,0,0,0,.05-.07.65-.38,1.31-1,1.35s-.94-.58-1-1.25C386.74,128.37,386.86,128.2,387,128.29Z" style="fill:#263238"></path><path d="M383.91,137.47c-.26.24-.53.58-.92.6a2.91,2.91,0,0,1-1.14-.32s-.06,0,0,.06a1.43,1.43,0,0,0,1.33.63,1.16,1.16,0,0,0,.88-.92C384,137.46,384,137.44,383.91,137.47Z" style="fill:#263238"></path><path d="M379.83,133.21s-.37,1.56-.44,2.31c0,.07.17.12.42.16h0a3.58,3.58,0,0,0,3.59-1c.06-.07,0-.15-.1-.11a5.42,5.42,0,0,1-3.34.62c0-.21.72-2.66.6-2.68a6.53,6.53,0,0,0-1.74.22c.68-3.29,1.87-6.44,2.5-9.73,0-.11-.15-.17-.19-.06A54.45,54.45,0,0,0,378,133.3C377.92,133.72,379.52,133.3,379.83,133.21Z" style="fill:#263238"></path><path d="M379.92,135.41a4.36,4.36,0,0,0,1.5,1.6,1.91,1.91,0,0,0,1.16.25c.88-.09,1-.86,1-1.55a4.64,4.64,0,0,0-.22-1.08A5.55,5.55,0,0,1,379.92,135.41Z" style="fill:#263238"></path><path d="M381.42,137a1.91,1.91,0,0,0,1.16.25c.88-.09,1-.86,1-1.55A2,2,0,0,0,381.42,137Z" style="fill:#ff9abb"></path><path d="M401.12,134.49a6.48,6.48,0,0,1-3.11-5.61,16.92,16.92,0,0,1-6.34-6.18c.08.33.61,2.73.92,4-9.76-2.81-12.11-10.71-12.11-10.71a17.33,17.33,0,0,0-4.94,5.88s.51-6.1,4-9.89a9.88,9.88,0,0,1,9.46-3.18,14.11,14.11,0,0,1,13.32,5.54C408.14,122,401.12,134.49,401.12,134.49Z" style="fill:#263238"></path><path d="M385.19,124.28a18.59,18.59,0,0,0,4.92,2.36s0,0,0,0a15.66,15.66,0,0,1-6.88-5.11,14.64,14.64,0,0,1-1.85-3.21,10,10,0,0,1-1-3.91c0-.1-.16-.1-.16,0a12,12,0,0,0,.42,4,10.91,10.91,0,0,0,1.89,3.5,12.65,12.65,0,0,0,2.61,2.4" style="fill:#263238"></path><path d="M398.55,134.21s4.15-4.3,6.15-2.75-1.65,8.17-4.38,8.72a2.65,2.65,0,0,1-3.29-2Z" style="fill:#d3766a"></path><path d="M403.61,133.33s0,.07,0,.07c-1.92.45-3.14,2-4.08,3.61a1.46,1.46,0,0,1,2.23,0s0,.1-.07.08a1.63,1.63,0,0,0-1.86.29,7.54,7.54,0,0,0-1.08,1.3c-.11.14-.39,0-.3-.16l0,0C398.79,136.11,401.1,133.17,403.61,133.33Z" style="fill:#263238"></path><path d="M413.19,162.32c6.08,16.72,11.61,44.44,8.24,49-8.43,11.35-25.93,21.91-33.8,25.06-4.59,1.84-15.49-21.93-11.49-23.76,6.31-2.9,23.36-13.57,25.44-15,1.11-.79.92-19.83,1.93-32.27C404.62,151.75,410.23,154.18,413.19,162.32Z" style="fill:#d3766a"></path><path d="M363.71,223.37c1.11-1.29.43-1.88-2.54-1.29s-14.22,5.45-15.58,1.38,14.61-10.7,19.63-11.3,13.36.17,13.36.17C375.73,214.24,369.25,219.55,363.71,223.37Z" style="fill:#d3766a"></path><rect x="351.39" y="193.82" width="8.83" height="55.48" transform="translate(774.32 198.53) rotate(144.94)" style="fill:#c7c7c7"></rect><polygon points="379.56 267.03 390.48 259.36 390.48 259.36 369.81 229.91 369.81 229.91 358.89 237.57 358.89 237.57 379.56 267.03" style="fill:#263238"></polygon><g style="opacity:0.4"><path d="M297,199.39a48.26,48.26,0,1,1,36.76-2.85A48.24,48.24,0,0,1,297,199.39Z" style="fill:#fff"></path></g><path d="M294.44,207.13a56.33,56.33,0,1,1,71-36A56.4,56.4,0,0,1,294.44,207.13Zm2-6.14a49.87,49.87,0,1,0-31.92-62.89A49.93,49.93,0,0,0,296.45,201Z" style="fill:#37474f"></path><path d="M363.12,147.42a51.84,51.84,0,0,0-5.24-17.15,51.24,51.24,0,1,0,5.24,17.15Zm-5.38,21.14a48.24,48.24,0,1,1-2.85-36.77A48.24,48.24,0,0,1,357.74,168.56Zm5.38-21.14a51.84,51.84,0,0,0-5.24-17.15,51.24,51.24,0,1,0,5.24,17.15Zm-5.38,21.14a48.24,48.24,0,1,1-2.85-36.77A48.24,48.24,0,0,1,357.74,168.56Zm11.79-21.91a58,58,0,1,0-2.46,24.95A57.85,57.85,0,0,0,369.53,146.65Zm-5.65,23.91a54.66,54.66,0,1,1,2.31-23.5A54.3,54.3,0,0,1,363.88,170.56Zm-6-40.29a51.24,51.24,0,1,0,5.24,17.15A51.84,51.84,0,0,0,357.88,130.27Zm-.14,38.29a48.24,48.24,0,1,1-2.85-36.77A48.24,48.24,0,0,1,357.74,168.56Z" style="fill:#37474f"></path><path d="M275.49,169.7A37.12,37.12,0,0,1,272,154.78a39.82,39.82,0,0,1,.53-7.84,42.07,42.07,0,0,1,2.12-7.66,38.43,38.43,0,0,1,8.8-13.24,42.62,42.62,0,0,1,13-8.75,76.47,76.47,0,0,0-11.13,10.46A47,47,0,0,0,281,133.8a38.69,38.69,0,0,0-3.27,6.61,47.48,47.48,0,0,0-3.16,14.35A62.77,62.77,0,0,0,275.49,169.7Z" style="fill:#ebebeb;opacity:0.5"></path><path d="M350,150a37,37,0,0,1-.74,15.3,38.9,38.9,0,0,1-2.65,7.4,41.44,41.44,0,0,1-4.13,6.79,38.47,38.47,0,0,1-12.08,10.34,42.68,42.68,0,0,1-14.91,4.85,76.48,76.48,0,0,0,13.56-7,47.84,47.84,0,0,0,5.82-4.65,38.81,38.81,0,0,0,4.95-5.46,47.37,47.37,0,0,0,6.95-12.94A62.63,62.63,0,0,0,350,150Z" style="fill:#ebebeb;opacity:0.5"></path><path d="M390.29,234.74c-8.23,5.1-18.16,11.95-29.08,12.19a5.43,5.43,0,0,1-3.4-1c-4.89.19-6.45-2.06-6.45-2.06-4.61-1.21-5.9-3.73-5.9-3.73s-5.74.17-6.42-3.28c-.77-3.87,7.45-3.36,12.14-5.83,10.76-5.68,24.46-16.76,27.4-18.71Z" style="fill:#d3766a"></path><path d="M366.64,233a78.52,78.52,0,0,1-9.7,4.43,78.06,78.06,0,0,1-11.4,2.6.1.1,0,0,0,0,.19,41.26,41.26,0,0,0,21.14-7.08C366.85,233.05,366.8,232.93,366.64,233Z" style="fill:#263238"></path><path d="M371,239c-3.2,1.39-8.84,3.8-19.66,4.77,0,0,0,.06,0,.06a37.07,37.07,0,0,0,19.73-4.68C371.27,239.05,371.22,238.91,371,239Z" style="fill:#263238"></path><path d="M373.3,242.27c-5.53,2.16-9.29,2.82-15.47,3.64,0,0,0,.07,0,.06,7.12-.19,9.68-1.07,15.57-3.53C373.6,242.36,373.51,242.18,373.3,242.27Z" style="fill:#263238"></path><path d="M393,238.35l-14.76-28.69L400.41,197c.27-10.26.81-30.78,2.06-37.85,1.46-8.3,7.32-7.82,10.76,0,7.89,18,12.31,47.35,10.83,52C421.93,217.91,393,238.35,393,238.35Z" style="fill:#C53F3F"></path><path d="M395.83,232.4c-.58-1.94-4.27-9.43-5.21-11.29s-5-9.17-5.93-11.08c-.05-.1-.21-.06-.16.05.93,1.9,4.38,9.54,5.3,11.41s4.69,9.3,5.9,10.95C395.78,232.5,395.85,232.46,395.83,232.4Z" style="fill:#263238"></path><path d="M401.46,172.55c-.09,6.91-.09,14.95-.38,21.89a26.06,26.06,0,0,1-.19,2.62.69.69,0,0,1-.25.41c-5.2,3.44-11.31,6.41-16.82,9.36l-5.59,2.82,0-.06.34.8-.42-.76,0,0,.05,0,5.39-3.17c5.28-3.14,11.35-6.31,16.42-9.65,0,0,0,0,0,0a.3.3,0,0,0-.07.14c0-.29.06-.6.08-.94.43-7.64.52-15.8,1.44-23.39Z" style="fill:#263238"></path><path d="M400.62,173.84a34.35,34.35,0,0,1,.59,3.49,7.58,7.58,0,0,1-.59-3.49Z" style="fill:#263238"></path><path d="M391.14,234.77l1.93,3.54-.15,0c8.51-5.91,16.88-12.1,24.29-19.34a39.62,39.62,0,0,0,6.42-8,3.65,3.65,0,0,0,.26-1.07c.45-6.43-.85-12.86-1.87-19.19-1.24-6.79-2.85-13.53-4.66-20.21a175.7,175.7,0,0,1,5.39,20.07C424,197,425.26,203.5,424.86,210a4.39,4.39,0,0,1-.37,1.43,38,38,0,0,1-6.63,8.13A152.12,152.12,0,0,1,393,238.44l-.1.06-.05-.1-1.75-3.63Z" style="fill:#263238"></path><path d="M418.67,172.69a8.33,8.33,0,0,1,.42,3.83c-.15-1.28-.34-2.53-.42-3.83Z" style="fill:#263238"></path><path d="M354.89,217.26c-.78-3.23-4.13-.47-4.13-.47s3.87-5.14,1.78-8.16-6,.58-6.24.83c.2-.28,3.64-5.1,1.23-7.92s-5.87,1.25-6.08,1.52c.11-.31,1.49-4.55-.83-6.28-4-3-9,8.82-12.66,10.39l-6.51-3.7a10,10,0,0,1,1.65,5.41c.11,2.77.17,4.63,1,6.15a3.64,3.64,0,0,0,3.9,1.9s-1.61,3.13.22,5.41c.94,1.17,3.65.7,3.65.7a4.36,4.36,0,0,0,.57,4.49c1.39,1.54,3.89.83,3.89.83s0,3,1.94,4.1C342.19,234.7,356.55,224.17,354.89,217.26Z" style="fill:#d3766a"></path><path d="M326.33,206.55l-4.76-3c-.2-.07-.41-.15-.6-.2-6.89-2.06-14.48,3.17-10.17,6,3.28,2.16,9.37-.54,12.4,2.15h0Z" style="fill:#d3766a"></path><path d="M336.76,228.31a0,0,0,1,0,0,.08A30.86,30.86,0,0,0,351,216.66c.11-.17-.12-.41-.27-.24A63.6,63.6,0,0,1,336.76,228.31Z" style="fill:#263238"></path><path d="M331.84,223.12c-.06,0,0,.14.07.11a29,29,0,0,0,14.64-13.76c.1-.22,0-.51-.16-.27C344.1,213.3,336.75,220.13,331.84,223.12Z" style="fill:#263238"></path><path d="M341.5,202.55c-3.07,6-7.76,10.44-13.24,14.3-.07.05,0,.14.08.12,3.19-1.16,6.42-4,8.75-6.39a17.83,17.83,0,0,0,4.62-7.92C341.74,202.54,341.56,202.42,341.5,202.55Z" style="fill:#263238"></path></g><g id="freepik--character-1--inject-149"><path d="M75.11,377.22l-20.85,39.3c-3.3,7.89-6,14.87-7.14,18.62a.14.14,0,0,0,0,.06,6.09,6.09,0,0,0-.44,2.68s0,.05,0,.07c1.68,2.58,64,30.81,66.51,31.06s3.42-6.86,1.88-9.89S94.5,434.61,94.5,434.61l20.43-39.41Z" style="fill:#eb9481"></path><path d="M112.21,468.82c-2.5-.26-63.84-28.3-65.52-30.87l0-.07a6.09,6.09,0,0,1,.44-2.68.11.11,0,0,1,0-.06c1.09-3.74,3.85-10.73,7.14-18.62,0,0,3.5-6.86,4.91-9.25l39.67,19.17-4.34,8.17s18,21.28,19.59,24.31S114.72,469.08,112.21,468.82Z" style="fill:#ebebeb"></path><path d="M113.31,468c-2.52-.31-64.66-30.23-66.3-32.88-.64-1,3.19-10.3,8.14-21.41l.16-.35,40.31,18.86-.35.67s18.67,22.09,20.17,25.19S115.83,468.27,113.31,468Z" style="fill:#C53F3F"></path><path d="M113.77,465.2c-10.35-5.3-52.6-25.7-63.24-30.16-.09,0-.11,0,0,.07,10.14,5.48,52.56,25.54,63.19,30.26C113.91,465.47,114,465.31,113.77,465.2Z" style="fill:#fff"></path><path d="M98.58,434.58c-3.75-2.75-9.09-4.55-13.66-3.13-.18.06-.09.31.06.33a64.77,64.77,0,0,1,13.34,3.31A.29.29,0,0,0,98.58,434.58Z" style="fill:#263238"></path><path d="M100.7,437.81c-3.76-2.76-9.1-4.55-13.67-3.13-.17.05-.09.3.06.33a64,64,0,0,1,13.34,3.31A.29.29,0,0,0,100.7,437.81Z" style="fill:#263238"></path><path d="M102.81,441c-3.75-2.75-9.1-4.55-13.66-3.13-.18.06-.1.31,0,.33a64,64,0,0,1,13.34,3.32A.3.3,0,0,0,102.81,441Z" style="fill:#263238"></path><path d="M62.22,425.21c-3.42-4.42-10.3.89-6.87,5.32S65.64,429.64,62.22,425.21Z" style="fill:#fff"></path><path d="M98.06,436.15l5.15,27.4a106.79,106.79,0,0,0,10.1,4.4c2.52.32,3.61-6.84,2.13-9.93C114.3,455.68,103.32,442.44,98.06,436.15Z" style="opacity:0.1"></path><path d="M115.33,466.18c.91,1-1.13,4.58-2.08,4.5s-68.56-33-69.58-33.83,1.38-4.74,2.82-4.31S115.33,466.18,115.33,466.18Z" style="fill:#263238"></path><path d="M59,403.66,103.7,426s53.5-80.8,54.05-101.67c.76-28.81-26.27-119.5-26.27-119.5l-39.19.8s18.46,93.51,17.6,109.57C109.44,323.61,59,403.66,59,403.66Z" style="fill:#263238"></path><path d="M107.3,416.79c-2.32-1.57-23.54-13.12-39.66-20.42-.11-.05-.17.1-.08.16,4.92,3.06,36.57,19.31,39.63,20.44C107.29,417,107.4,416.86,107.3,416.79Z" style="fill:#37474f"></path><path d="M114.79,295q-3.29-20.55-7.22-41c-2.66-13.68-5.45-27.35-8.69-40.9q-.6-2.49-1.22-5a.21.21,0,0,0-.4.09c2.78,13.46,5.63,26.9,8.22,40.4s5,27,7.25,40.59q.83,5,1.62,10.07a90.3,90.3,0,0,1,1.28,10.48,27,27,0,0,1-1.41,9.88,57.6,57.6,0,0,1-4.28,9c-6.77,12.18-37.1,65.45-37.89,67,0,.1.09.2.15.1,7.3-12,29.92-50.43,36.78-62.81,3.1-5.59,6.67-11.26,7.55-17.7C117.45,308.52,115.84,301.59,114.79,295Z" style="fill:#37474f"></path><path d="M106.38,402.38s.77,44.72.77,44.75c.46,8.55,1,16,1.68,19.88a.13.13,0,0,0,0,.06,5.94,5.94,0,0,0,.77,2.6l.06.05c2.64,1.59,71-.15,73.4-1s.09-7.67-2.62-9.72-29.21-13.1-29.21-13.1l-1.18-44.67Z" style="fill:#eb9481"></path><path d="M107,438s.16,9.15.16,9.18c.46,8.55,1,16,1.68,19.88a.13.13,0,0,0,0,.06,11.69,11.69,0,0,0,.77,2.6l.06.05c2.64,1.59,71-.15,73.4-1s.09-7.67-2.62-9.72-29.21-13.1-29.21-13.1l-.24-9.31Z" style="fill:#ebebeb"></path><path d="M183.1,468.62c-2.4.83-71.37,1.48-74-.17-1-.6-1.69-10.65-2.17-22.81,0-.13,0-.25,0-.38l44.49-.91v.75s26.51,11.56,29.23,13.68S185.5,467.79,183.1,468.62Z" style="fill:#C53F3F"></path><path d="M182.29,466c-11.63-.18-58.54.21-70,.92-.1,0-.09.07,0,.07,11.52.43,58.43-.34,70.06-.8C182.54,466.13,182.54,466,182.29,466Z" style="fill:#fff"></path><path d="M155.13,445.2c-4.58-.81-10.17-.05-13.63,3.24-.14.12,0,.31.19.27a64.14,64.14,0,0,1,13.43-2.93A.29.29,0,0,0,155.13,445.2Z" style="fill:#263238"></path><path d="M158.45,447.16c-4.58-.81-10.17-.06-13.63,3.24-.14.12.05.31.19.26a64.76,64.76,0,0,1,13.43-2.92A.29.29,0,0,0,158.45,447.16Z" style="fill:#263238"></path><path d="M161.77,449.12c-4.58-.81-10.17-.06-13.63,3.24-.14.12.05.31.19.26a64.76,64.76,0,0,1,13.43-2.92A.29.29,0,0,0,161.77,449.12Z" style="fill:#263238"></path><path d="M184.13,466.13c1.24.47,1,4.62.12,5s-76.09.71-77.37.44-.85-4.87.63-5.12S184.13,466.13,184.13,466.13Z" style="fill:#263238"></path><path d="M118.37,452.88c-5-2.46-8.84,5.35-3.81,7.81S123.4,455.34,118.37,452.88Z" style="fill:#fff"></path><path d="M131,204.77l0,0c-.24.82-13.28,39.79-14.59,40.44-1.48.73,32.61,54.63,35.22,80,1.68,16.25,1.74,108.43,1.74,108.43L105.66,435s.06-82.87.44-109.14c.15-10.19-34.38-60-35.63-91.49-.4-9.94,6.26-28.3,6.26-28.3Z" style="fill:#263238"></path><path d="M106.36,325.13c0-.42-.35-.55-.37-.12-.7,14.23-.57,28.37-.86,42.61s.18,17.61-.07,31.81c-.14,8,.42,16.08.45,24.11a.1.1,0,0,0,.2,0C106.81,409.36,106.56,333.17,106.36,325.13Z" style="fill:#37474f"></path><path d="M151.62,325.84a69.06,69.06,0,0,0-1.25-10.43,51.36,51.36,0,0,0-3.21-9.73c-2.81-6.57-6.1-13-9.25-19.38s-6.44-13-9.8-19.38q-2.82-5.42-5.69-10.8c-1.93-3.64-4-7.21-6-10.79a.13.13,0,0,0-.23.11c3.24,6.48,6.43,13,9.66,19.46s6.41,13,9.59,19.49,6.27,12.8,9.23,19.28a65.28,65.28,0,0,1,3.66,9.55A56.54,56.54,0,0,1,150,323.57c.69,8.13,1.13,16.3,2.15,24.4,0,.1.18.08.18,0C152.35,340.59,152,333.19,151.62,325.84Z" style="fill:#37474f"></path><path d="M149.63,424.38c-2.78-.29-23.92-.45-41.58.78a.09.09,0,0,0,0,.18c5.78.36,38.33-.3,41.56-.76C149.72,424.57,149.76,424.39,149.63,424.38Z" style="fill:#37474f"></path><path d="M122.91,242.93a91.39,91.39,0,0,0-14.77,5.57.16.16,0,0,0,.12.3c5-1.7,10-3.31,14.87-5.28A.32.32,0,0,0,122.91,242.93Z" style="fill:#37474f"></path><path d="M126.84,210.11c0-.16-.29-.22-.3,0a158.43,158.43,0,0,1-2,16c-.41,2.46-3.43,16-7.65,14.67-.7-.22-1-1-1.05-2.05a17.29,17.29,0,0,1,.89-4.15c.69-2.83,1.29-5.68,1.75-8.55a78.54,78.54,0,0,0,1.05-16.2.14.14,0,0,0-.28,0,148.71,148.71,0,0,1-3,22.25c-.81,3.52-3,8.74.68,9.57s6.88-7.95,7.52-10.37A82,82,0,0,0,126.84,210.11Z" style="fill:#37474f"></path><path d="M117,241.12a22.45,22.45,0,0,0-1.18,2.76,6.66,6.66,0,0,0-.58,2.3c0,.15.21.18.3.09a8,8,0,0,0,1.16-2.2c.4-.85.81-1.7,1.18-2.56A.48.48,0,0,0,117,241.12Z" style="fill:#37474f"></path><path d="M111.62,339c.06-6.78.62-13.91-1.78-20.4a68.79,68.79,0,0,0-4.6-9.16q-2.61-4.71-5.13-9.48C93.4,287.28,87,274.37,81.32,261.19c-2.75-6.34-5.24-12.86-6.35-19.72a61.2,61.2,0,0,1,.75-21.67c.35-1.77.73-3.54,1.17-5.3a.1.1,0,0,0-.2-.06,71.42,71.42,0,0,0-3.16,20.78,58.56,58.56,0,0,0,4.12,19.67c2.47,6.6,5.5,13,8.5,19.36q4.62,9.84,9.59,19.52c3.29,6.42,6.79,12.72,10.26,19.05a35.16,35.16,0,0,1,3.92,9.64,50.08,50.08,0,0,1,.68,10.66c-.16,15-.11,64.95.11,79.92,0,1.9.05,3.8.08,5.7,0,.16.26.18.27,0C111.6,403.8,111.48,354,111.62,339Z" style="fill:#37474f"></path><path d="M97.58,215.39c0-.11-.17-.08-.18,0-.45,4.15-.66,8.44-2.55,12.23-1.73,3.49-4.86,5.79-8.3,7.43a60.22,60.22,0,0,1-6.13,2.45c-.14.06-.1.29.06.25,3.92-.92,7.91-1.95,11.27-4.26,3.61-2.47,5.39-6.31,5.88-10.58A36.44,36.44,0,0,0,97.58,215.39Z" style="fill:#37474f"></path><path d="M123.81,155.94c-1.47,22.39-.44,45.25,2.43,49.4,4.45,6.42,33.66,20.17,43.49,22.68,3.21.82,10.51-20.58,8.36-23.41s-34-15.25-35.59-16.72c-.85-.79-5.47-19.19-9.37-31.67C129.51,144.62,124.26,149.14,123.81,155.94Z" style="fill:#eb9481"></path><path d="M158.65,225.14l9.59-26.94s-22.3-10-24.94-11.5c-1.12-.62-7-23.36-10-33.22-2-6.48-8.13-9.7-10.43,3.2-1.35,7.55-2.49,44.08,2.37,50.14C129.13,211.65,158.65,225.14,158.65,225.14Z" style="fill:#455a64"></path><path d="M154.23,221.56c.39-2,3.33-10.05,4.08-12s4.06-9.86,4.84-11.9c0-.11.21-.08.17,0-.74,2-3.42,10.18-4.16,12.17s-3.77,10-4.82,11.78A.06.06,0,0,1,154.23,221.56Z" style="fill:#263238"></path><path d="M149.27,220.7c-9-4.38-21.57-10.84-24-13.87-4.86-6.07-3.73-42.6-2.37-50.15,1.16-6.51,3.31-8.91,5.4-8.86Z" style="fill:#020100;opacity:0.1"></path><path d="M73.26,210.05c.11.18,61.12,7.63,61.79,7.11.24-.18,1.76-54.71-4.65-69.19-2.64-6-13.34-9.13-19.32-2.8C81.85,176.11,73.13,209.81,73.26,210.05Z" style="fill:#ebebeb"></path><rect x="128.42" y="153.4" width="27.7" height="134.83" transform="translate(16.54 451.45) rotate(-118.61)" style="fill:#C53F3F"></rect><g style="opacity:0.1"><path d="M194,183.09c-35.18,19.53-74.81,41.15-110.29,60.14,35.18-19.54,74.82-41.14,110.29-60.14Z"></path><path d="M196.62,187.92c-35.18,19.53-74.81,41.14-110.29,60.13,35.18-19.53,74.82-41.14,110.29-60.13Z"></path><path d="M199.25,192.74C164.07,212.27,124.44,233.88,89,252.87c35.18-19.53,74.81-41.14,110.29-60.13Z"></path><path d="M201.88,197.56c-35.18,19.53-74.81,41.14-110.29,60.13,35.18-19.53,74.81-41.14,110.29-60.13Z"></path></g><path d="M80.05,270.91S65.86,280.77,58.34,267s8.45-20.39,8.45-20.39Z" style="fill:#ff9abb"></path><rect x="60.68" y="252.57" width="32.34" height="7.85" transform="translate(-111.53 446.78) rotate(-118.61)" style="fill:#a6a6a6"></rect><rect x="68.3" y="248.42" width="32.34" height="7.85" transform="translate(-96.62 447.33) rotate(-118.61)" style="fill:#a6a6a6"></rect><path d="M194.81,176.37,217.3,176l7.41-.15L220.6,182l-12.51,18.69-4.87-.54s2.19-4.25,2.22-4.33l-4.88-.54s2.2-4.25,2.22-4.33l-4.84-.48s2.16-4.31,2.18-4.39l-4.84-.48s2.16-4.31,2.19-4.39l-4.85-.48S194.79,176.46,194.81,176.37Z" style="fill:#C53F3F"></path><path d="M194.81,176.37,217.3,176l7.41-.15L220.6,182l-12.51,18.69-4.87-.54s2.19-4.25,2.22-4.33l-4.88-.54s2.2-4.25,2.22-4.33l-4.84-.48s2.16-4.31,2.18-4.39l-4.84-.48s2.16-4.31,2.19-4.39l-4.85-.48S194.79,176.46,194.81,176.37Z" style="fill:#fff;opacity:0.8"></path><polygon points="217.3 175.98 224.71 175.82 220.6 182.03 217.3 175.98" style="fill:#263238"></polygon><path d="M105.77,148.79C92,161,73.31,183.59,74.15,189.38c2.09,14.49,12.85,32.74,18.48,39.49,3.28,3.94,24.91-12.37,22.17-16C110.47,207.11,100.19,189,99,186.62c-.63-1.26,8.92-18.53,14.12-30.38C118.79,143.37,112.48,142.82,105.77,148.79Z" style="fill:#eb9481"></path><path d="M122.08,224.24c-.77-1.59,0-2,2.88-.64s12.86,9.15,15.28,5.42-11.89-14.52-16.77-16.43S110,209.31,110,209.31C112.39,212,117.51,219,122.08,224.24Z" style="fill:#eb9481"></path><path d="M92.47,228.76c6.94,7.25,15.13,16.69,26,19.76a5.56,5.56,0,0,0,3.67-.12c4.85,1.47,7-.38,7-.38,4.94,0,6.88-2.22,6.88-2.22s5.72,1.66,7.3-1.64c1.78-3.68-6.6-5.29-10.67-9-9.32-8.48-20.2-23.15-22.65-25.86Z" style="fill:#eb9481"></path><path d="M116.65,233.14a79.61,79.61,0,0,0,8.58,7A81.69,81.69,0,0,0,136,245.67a.1.1,0,0,1-.07.18,42.89,42.89,0,0,1-19.38-12.58C116.42,233.13,116.51,233,116.65,233.14Z" style="fill:#263238"></path><path d="M110.71,238c2.85,2.22,7.89,6.1,18.49,9.87,0,0,0,.08,0,.07a38.41,38.41,0,0,1-18.58-9.81C110.44,238,110.52,237.88,110.71,238Z" style="fill:#263238"></path><path d="M107.57,240.71c5,3.6,8.59,5.24,14.57,7.66,0,0,0,.08,0,.06-7.08-2-9.42-3.58-14.7-7.57C107.24,240.73,107.38,240.57,107.57,240.71Z" style="fill:#263238"></path><path d="M86.76,228.06l27.59-18.89-14-22.47c4.81-9.49,13.77-28.24,16.11-35.31,2.75-8.28-2-9.28-9.06-3.82-16,12.5-36.68,36.61-37.63,41.61C68.41,196.33,86.76,228.06,86.76,228.06Z" style="fill:#455a64"></path><path d="M87.09,221.23c1.49-1.48,8.54-6.5,10.31-7.73s9-5.93,10.86-7.18c.1-.07.23.05.13.12-1.78,1.28-8.69,6.55-10.45,7.79s-8.86,6.17-10.78,7.08A.05.05,0,0,1,87.09,221.23Z" style="fill:#263238"></path><path d="M111.43,163.88c-2.76,6.82-6.53,13.84-9.63,20.53-.22.47-.91,2-1,2.23,3.1,5.5,7,11.43,10.25,16.9l3.33,5.56,0,0,0,0-.76.48.7-.56v.07l-3.67-5.35c-3.49-5.26-7.34-11-10.51-16.39-.13-.29-.31-.44-.29-.84a14.46,14.46,0,0,1,1-2.58c3.1-6.5,7.16-13.77,10.53-20.11Z" style="fill:#263238"></path><path d="M111.63,165.21a7.87,7.87,0,0,1-2.28,2.71,29.45,29.45,0,0,1,2.28-2.71Z" style="fill:#263238"></path><path d="M163.89,215.18c1.18-3.39,4.5-.06,4.5-.06s-3.62-6-1-9,6.36,1.26,6.64,1.55c-.19-.31-3.38-5.87-.48-8.64s6.18,2,6.38,2.28c-.08-.35-1.12-5.06,1.56-6.67,4.6-2.76,8.7,10.45,12.52,12.53l7.4-3.29a10.8,10.8,0,0,0-2.36,5.65c-.41,3-.67,5-1.75,6.51a3.94,3.94,0,0,1-4.4,1.63s1.39,3.54-.82,5.8c-1.14,1.16-4,.36-4,.36s1,2.89-1.09,4.77c-1.67,1.51-4.28.48-4.28.48s-.32,3.21-2.52,4.2C175.7,235.32,161.37,222.44,163.89,215.18Z" style="fill:#eb9481"></path><path d="M195.77,206.7l5.45-2.71.67-.15c7.63-1.47,15.24,5,10.3,7.56-3.76,2-10-1.58-13.58,1h0Z" style="fill:#eb9481"></path><path d="M182.23,229c.05,0,0,.12,0,.09a33.4,33.4,0,0,1-14-14.14c-.1-.19.18-.43.32-.23A68.26,68.26,0,0,0,182.23,229Z" style="fill:#263238"></path><path d="M188.08,224c.06,0,0,.14-.09.1-5.9-3.21-11.79-9.17-14.29-16.36-.08-.25.09-.56.21-.28C175.93,212.08,183.11,220.21,188.08,224Z" style="fill:#263238"></path><path d="M179.88,200.78c2.66,6.81,7.24,12.07,12.71,16.8.08.07,0,.16-.09.12-3.31-1.58-6.49-5-8.74-7.8a19.33,19.33,0,0,1-4.12-9C179.62,200.74,179.82,200.64,179.88,200.78Z" style="fill:#263238"></path><path d="M119.47,140.91c-3,1.21-2.75,5.17-.7,10.06s5.26,8.34,8.54,8.08,4.52-4.91,4.82-7.58a9,9,0,0,0-4.15-8.41C124.36,141,121.18,140.23,119.47,140.91Z" style="fill:#455a64"></path><path d="M126.49,157.18c-3.6-.55-7.77-8.55-8.35-13.52,0-.34,1.57-3.11,3.37-6.56,1.09-2.11,2.25-4.47,3.15-6.71l12.64,9.07a38.22,38.22,0,0,0-4.82,8,6,6,0,0,0-.27,1s0,.1,0,.16C131.75,150.46,130,157.71,126.49,157.18Z" style="fill:#eb9481"></path><path d="M132.21,148.45a1.55,1.55,0,0,0,0,.15,9.74,9.74,0,0,1-1.47-.49c-8-3.46-5.94-14.16-5.19-17.1l3.16,2.26,8.63,6.19a38.22,38.22,0,0,0-4.81,8A5.19,5.19,0,0,0,132.21,148.45Z" style="fill:#263238"></path><path d="M127.15,114.68c-2.79,4.85-3.5,20.57-.55,24.79,4.26,6.11,13,8.6,18.6,3.08,5.46-5.35,6-25.85,2.57-29.86C142.69,106.78,131.28,107.5,127.15,114.68Z" style="fill:#eb9481"></path><path d="M139.44,128.08s-.09,0-.09.09c0,1.06-.22,2.27-1.19,2.57,0,0,0,.07,0,.06C139.34,130.7,139.59,129.09,139.44,128.08Z" style="fill:#263238"></path><path d="M138.55,126.93c-1.7-.22-2,3.19-.43,3.39S140,127.11,138.55,126.93Z" style="fill:#263238"></path><path d="M145.45,128.42s.08.05.07.1c-.13,1-.1,2.28.83,2.71,0,0,0,.07,0,.06C145.18,131,145.16,129.39,145.45,128.42Z" style="fill:#263238"></path><path d="M146.49,127.4c1.71,0,1.54,3.44-.05,3.42S145.06,127.38,146.49,127.4Z" style="fill:#263238"></path><path d="M136.91,124.84a12.39,12.39,0,0,0,1.36.37,2.27,2.27,0,0,0,1.45.12.73.73,0,0,0,.41-.78,1.81,1.81,0,0,0-1.38-1.19,2.6,2.6,0,0,0-1.9.07A.77.77,0,0,0,136.91,124.84Z" style="fill:#263238"></path><path d="M148.2,124.69c-.47-.12-.88-.31-1.33-.47a2.35,2.35,0,0,1-1.26-.74.74.74,0,0,1,.12-.88,1.8,1.8,0,0,1,1.81-.18,2.66,2.66,0,0,1,1.52,1.15A.77.77,0,0,1,148.2,124.69Z" style="fill:#263238"></path><path d="M137.22,137.35c.23.27.45.64.83.7a2.7,2.7,0,0,0,1.16-.16s.07,0,0,.06a1.42,1.42,0,0,1-1.39.45,1.13,1.13,0,0,1-.75-1C137.1,137.33,137.19,137.32,137.22,137.35Z" style="fill:#263238"></path><path d="M138.61,134.29a3.65,3.65,0,0,0,2.26,1.82,4.61,4.61,0,0,0,1.29.17,1,1,0,0,0,.25,0h.23a.26.26,0,0,0,.23-.22h0a.21.21,0,0,0,0-.11h0v-.1c.1-.81.13-2,.13-2,.28.17,1.73,1,1.75.56a54.07,54.07,0,0,0-.43-11,.1.1,0,0,0-.19,0c-.24,3.39.13,6.8,0,10.22a6.36,6.36,0,0,0-1.65-.67c-.12,0,0,2.4-.09,2.76a.1.1,0,0,1,0,0,5,5,0,0,1-3.62-1.48C138.65,134.14,138.56,134.2,138.61,134.29Z" style="fill:#263238"></path><path d="M122.65,127c4.14,1.09,7.29-3.49,7.08-7.7,0,0,10.86,3.62,13.11-5.23a9.65,9.65,0,0,0,6.72,5.41l.37,3.54c1.21-.12,3-3.13.74-6.22a10.84,10.84,0,0,0-2.12-7.8,6.21,6.21,0,0,0-6.38-2.18,9.36,9.36,0,0,0-6.4-2.94,8,8,0,0,0-6.62,3.16s-5.72,0-7.41,3.74a8.29,8.29,0,0,0-.17,6.76s-1.68,1.27-1.62,4.76C120,124.58,121.41,126.71,122.65,127Z" style="fill:#263238"></path><path d="M142.75,113.27a10.83,10.83,0,0,1-.4,2.19,9,9,0,0,1-.81,2,5.74,5.74,0,0,1-3.19,2.71,9.22,9.22,0,0,1-4.31.25c-.72-.16-1.46-.27-2.17-.47s-1.42-.45-2.14-.65c.68.31,1.37.59,2.06.89s1.45.42,2.18.63a9.24,9.24,0,0,0,4.55-.15,6,6,0,0,0,3.38-3A9.14,9.14,0,0,0,142.75,113.27Z" style="fill:#263238"></path><path d="M129.15,107.08a10.48,10.48,0,0,0-4.28.1,6.39,6.39,0,0,0-3.67,2.3,7,7,0,0,0-.93,2,6.33,6.33,0,0,0-.3,2.17,5.84,5.84,0,0,0,1.6,3.93,6.47,6.47,0,0,1-1.2-3.93,7.21,7.21,0,0,1,1.26-3.86,5.42,5.42,0,0,1,1.47-1.39,8.14,8.14,0,0,1,1.88-.83A13.21,13.21,0,0,1,129.15,107.08Z" style="fill:#263238"></path><path d="M142.17,106.86a10.77,10.77,0,0,1,3.4,0,6.08,6.08,0,0,1,4.91,4,11.53,11.53,0,0,1,.74,3.32,8.47,8.47,0,0,0-.36-3.46,5.86,5.86,0,0,0-5.24-4.24A8.22,8.22,0,0,0,142.17,106.86Z" style="fill:#263238"></path><path d="M147.5,119.54a11.8,11.8,0,0,1-3-2.47,7.2,7.2,0,0,1-1.05-1.61,8.54,8.54,0,0,1-.61-1.87,5,5,0,0,0,.24,2,5,5,0,0,0,1,1.8,6.23,6.23,0,0,0,1.56,1.34A5.92,5.92,0,0,0,147.5,119.54Z" style="fill:#263238"></path><path d="M137.19,133.11a4.56,4.56,0,1,1,5.36-4.8h0a4.56,4.56,0,0,1-4.23,4.86A4.27,4.27,0,0,1,137.19,133.11Zm1.51-8.37a4.5,4.5,0,0,0-1,0,3.94,3.94,0,1,0,1,0Z" style="fill:#C53F3F"></path><path d="M147.63,133.7c-1.71-.31-2.95-2.34-2.81-4.72a5.51,5.51,0,0,1,1.16-3.12,3.06,3.06,0,0,1,2.51-1.22,3,3,0,0,1,2.34,1.52,5.45,5.45,0,0,1,.77,3.24c-.16,2.51-1.81,4.46-3.67,4.34Zm1.05-8.42-.23,0a2.44,2.44,0,0,0-2,1,4.88,4.88,0,0,0-1,2.77c-.13,2.17,1,4,2.54,4.11s2.88-1.59,3-3.77a4.84,4.84,0,0,0-.67-2.87A2.51,2.51,0,0,0,148.68,125.28Z" style="fill:#C53F3F"></path><path d="M142.36,128.82l-.36-.49c.73-.53,2.37-1.21,3.41,0l-.47.39C144,127.63,142.43,128.77,142.36,128.82Z" style="fill:#C53F3F"></path><path d="M122,128.74l-.53-.32c.15-.24,1.47-2.38,2.84-2.52s9.38,1.15,9.73,1.2l-.1.6c-2.32-.36-8.58-1.29-9.57-1.19S122.38,128.15,122,128.74Z" style="fill:#C53F3F"></path><path d="M127.56,127.71s-2.41-5.61-4.89-4.86-1.38,8.4,1,9.92a2.71,2.71,0,0,0,3.85-.68Z" style="fill:#eb9481"></path><path d="M123,125s-.06,0,0,.06c1.68,1.13,2.29,3,2.6,4.93a1.5,1.5,0,0,0-2.11-.86c-.06,0,0,.11,0,.11a1.66,1.66,0,0,1,1.68.94,7.85,7.85,0,0,1,.56,1.63c0,.19.37.16.34,0v-.05C126.63,129.44,125.5,125.79,123,125Z" style="fill:#263238"></path></g><g id="freepik--Plant--inject-149"><path d="M312.57,397.89c-9.94,13.46-20.3,29.08-22.82,46,0,.25.38.34.44.08a100.48,100.48,0,0,1,4.39-13.51c6.53-1.8,12.95-3.27,16.38-9.76,3.5-6.66,3.05-15.35,2.39-22.62C313.3,397.66,312.77,397.64,312.57,397.89Z" style="fill:#C53F3F"></path><path d="M294.68,430.29c4.46-10,10.19-20.07,17.48-28.31,0-.05.12,0,.08.08-4.77,5.87-8.39,12.26-11.93,18.76,3.29-3.34,6.89-6.33,10-9.88.06-.06.16,0,.1.1-3.1,3.72-6.48,7.75-10.51,10.5q-1.62,3-3.28,6l.83-.43c.05,0,.09.05.05.08-.31.15-.62.32-.93.45-.53.95-1.05,1.9-1.58,2.84C294.88,430.69,294.58,430.51,294.68,430.29Z" style="fill:#263238"></path><path d="M298,426.8a59.91,59.91,0,0,0,7.63-5.09c.06,0,.16,0,.09.09a40.28,40.28,0,0,1-7.61,5.19C298,427.05,297.88,426.87,298,426.8Z" style="fill:#263238"></path><path d="M288.6,441.34c0,.21.37.2.36,0,.05-5.55,0-11.14.09-16.72,1.42-2.87,4.48-4.46,6.6-6.77a29,29,0,0,0,4-5.52,39.65,39.65,0,0,0,4.6-15.33c.58-5.94-1.67-25.56-4.18-24.88-1.3.35-5.5,10.07-6.62,13.28a92.13,92.13,0,0,0-3.95,16.29C287.43,414.75,287.6,428.18,288.6,441.34Z" style="fill:#C53F3F"></path><path d="M288.56,417.36l0,0c.31-7,1.89-14.13,3.38-20.95,1.59-7.35,3.46-14.27,7.24-20.82a.11.11,0,0,1,.19.11,77.52,77.52,0,0,0-5.82,16c.25-.4.56-.77.82-1.15.11-.15.35,0,.25.14a10.46,10.46,0,0,1-1.18,1.67l0,0c-1.31,5.25-2.24,10.62-3,16l.18-.21s.11,0,.08.07l-.32.53c-.4,2.72-.77,5.43-1.15,8.12,4.84-4.14,9-9,11.31-15,0,0,.06,0,0,0-2.29,6.24-5.89,11.78-11.44,15.57l-.3,2.17c0,.15-.26.11-.26,0,0-.64,0-1.28.06-1.92A.15.15,0,0,1,288.56,417.36Z" style="fill:#263238"></path><path d="M290.84,407.17a111.89,111.89,0,0,0,9.87-17c0-.07.14,0,.12.05A55.14,55.14,0,0,1,291,407.32C290.94,407.42,290.76,407.29,290.84,407.17Z" style="fill:#263238"></path><path d="M295.76,388.82c1.53-2.72,3.15-5.36,4.59-8.12,0-.08.15,0,.12.06A42.26,42.26,0,0,1,296,389C295.89,389.09,295.67,389,295.76,388.82Z" style="fill:#263238"></path><path d="M295.16,390a0,0,0,1,1,0,0A0,0,0,1,1,295.16,390Z" style="fill:#263238"></path><path d="M284.84,425.27a57.56,57.56,0,0,1-1.3,11c0,.39.11.79.17,1.2a52.2,52.2,0,0,0,2-12.21.39.39,0,0,0,0-.38h0a81.31,81.31,0,0,0-1.22-16.54c-1.72-10.21-5.48-20-12.61-27.67a.5.5,0,0,0-.78.16c-2.88,7.31-1.88,16,.57,23.33a43,43,0,0,0,5.65,11.07C279.74,418.61,282.85,421.51,284.84,425.27Z" style="fill:#C53F3F"></path><path d="M272.7,384c6.75,11,11.44,24,12,36.89,0,.23-.38.29-.41.06-.16-1.17-.34-2.32-.52-3.47h0a44.5,44.5,0,0,1-7.66-8.84c0-.06.05-.13.1-.08a92.14,92.14,0,0,0,7.44,8.1c-.48-2.86-1-5.67-1.73-8.45l-.54-.63c-.11-.13.08-.33.2-.2l.17.18a99,99,0,0,0-3.53-11.2c-1.72-2.05-3.64-3.83-4.9-6.3,0-.06.05-.1.09,0,1,1.41,2,2.83,3.13,4.15.45.52.95,1,1.42,1.51a86.07,86.07,0,0,0-5.53-11.52A.15.15,0,0,1,272.7,384Z" style="fill:#263238"></path><path d="M274.06,397.55c2.18,2.93,4.67,5.74,6.7,8.77.06.09-.07.18-.14.11a44.34,44.34,0,0,1-6.71-8.8C273.85,397.54,274,397.46,274.06,397.55Z" style="fill:#263238"></path><path d="M281.06,407l.1.09c.06.07,0,.17-.1.1l-.1-.09C280.9,407,281,406.94,281.06,407Z" style="fill:#263238"></path><path d="M262.12,405.09a33.64,33.64,0,0,0,7.12,16.72,17.79,17.79,0,0,0,5.78,4.51c2.5,1.24,5.12,2.66,7.71,3.68a50.34,50.34,0,0,1,2.73,9.69l.25-.85c-1.66-14.28-10.9-26.48-22.71-34.31A.57.57,0,0,0,262.12,405.09Z" style="fill:#C53F3F"></path><path d="M266.2,409.31c-.08-.07,0-.22.12-.15a48.27,48.27,0,0,1,15.05,18.55c.09.19-.18.36-.29.17q-.82-1.44-1.68-2.82h0c-2.69-.51-5.25-2.4-7.25-4.2-.05-.05,0-.13.08-.08a16.74,16.74,0,0,0,3.41,2.39c1.1.56,2.28.91,3.43,1.36-1-1.59-2-3.11-3.13-4.58a31.38,31.38,0,0,1-8.1-4.56c-.08-.06,0-.18.07-.13a81.6,81.6,0,0,0,7.54,4,67.76,67.76,0,0,0-5.32-6.2c-.92-.49-1.85-1-2.74-1.49-.07,0,0-.17.06-.14a10.21,10.21,0,0,1,2.1,1C268.47,411.41,267.38,410.35,266.2,409.31Z" style="fill:#263238"></path><path d="M266.45,414.24a4.73,4.73,0,0,1,.46.32s0,.1-.06.08a4.53,4.53,0,0,1-.48-.27C266.29,414.32,266.37,414.19,266.45,414.24Z" style="fill:#263238"></path><polygon points="304.15 470.6 271.77 470.6 274.39 441.12 274.96 434.62 300.96 434.62 301.53 441.12 304.15 470.6" style="fill:#455a64"></polygon><polygon points="301.53 441.12 274.39 441.12 274.96 434.62 300.96 434.62 301.53 441.12" style="fill:#263238"></polygon><rect x="273.41" y="430.08" width="29.09" height="6.43" style="fill:#455a64"></rect></g><g id="freepik--speech-bubble--inject-149"><path d="M70.13,84.9a23.57,23.57,0,0,0,37.64,18.93l11.55,3L114.51,96A23.33,23.33,0,0,0,117.3,84.9a23.59,23.59,0,1,0-47.17,0Z" style="fill:#fff"></path><path d="M70.13,84.9a23.35,23.35,0,0,0,37.56,18.55l.17,0,11.57,2.87-.51.6-4.85-10.74L114,96l.11-.21c7.11-13-.31-29.92-14.71-33.49-14.57-4-29.33,7.51-29.25,22.59Zm0,0c0-20.06,23.54-31.11,39-18.32,8.59,6.93,11.24,20,5.8,29.67v-.42l4.77,10.77.37.84-.88-.23-11.53-3,.3-.06a23.8,23.8,0,0,1-12.21,4.51C82.2,109.81,70,98.54,70.13,84.9Z" style="fill:#263238"></path><rect x="91.01" y="72.2" width="4.93" height="25.75" transform="translate(87.54 -41.18) rotate(45)" style="fill:#C53F3F"></rect><rect x="91.01" y="72.2" width="4.93" height="25.75" transform="translate(-32.78 91.01) rotate(-45)" style="fill:#C53F3F"></rect></g></svg>
